<svg xmlns="http://www.w3.org/2000/svg" viewBox="0 0 1600 900" width="1600" height="900"><defs><linearGradient id="bg" x1="0" y1="0" x2="1" y2="1"><stop offset="0" stop-color="#F7F4EC"/><stop offset="1" stop-color="#F3E6C8"/></linearGradient></defs><rect x="0" y="0" width="1600" height="900" rx="0" fill="url(#bg)" /><circle cx="260.296" cy="432.433" r="4" fill="#0E4D3C" opacity=".12"/><circle cx="163.184" cy="5.26823" r="5" fill="#0E4D3C" opacity=".12"/><circle cx="511.921" cy="214.073" r="3" fill="#0E4D3C" opacity=".12"/><circle cx="7.29243" cy="271.839" r="4" fill="#0E4D3C" opacity=".12"/><circle cx="480.035" cy="856.513" r="5" fill="#0E4D3C" opacity=".12"/><circle cx="223.278" cy="710.318" r="5" fill="#0E4D3C" opacity=".12"/><circle cx="182.524" cy="804.187" r="5" fill="#0E4D3C" opacity=".12"/><circle cx="480.542" cy="24.6324" r="4" fill="#0E4D3C" opacity=".12"/><circle cx="431.055" cy="633.188" r="3" fill="#0E4D3C" opacity=".12"/><circle cx="563.509" cy="325.604" r="4" fill="#0E4D3C" opacity=".12"/><circle cx="567.234" cy="313.002" r="4" fill="#0E4D3C" opacity=".12"/><circle cx="372.055" cy="155.039" r="5" fill="#0E4D3C" opacity=".12"/><circle cx="210.976" cy="39.6059" r="3" fill="#0E4D3C" opacity=".12"/><circle cx="599.451" cy="711.298" r="5" fill="#0E4D3C" opacity=".12"/><circle cx="268.609" cy="440.898" r="4" fill="#0E4D3C" opacity=".12"/><circle cx="219.051" cy="414.794" r="3" fill="#0E4D3C" opacity=".12"/><circle cx="118.264" cy="434.028" r="3" fill="#0E4D3C" opacity=".12"/><circle cx="320.495" cy="777.863" r="3" fill="#0E4D3C" opacity=".12"/><circle cx="661.511" cy="427.57" r="3" fill="#0E4D3C" opacity=".12"/><circle cx="327.072" cy="551.725" r="4" fill="#0E4D3C" opacity=".12"/><circle cx="471.125" cy="871.275" r="5" fill="#0E4D3C" opacity=".12"/><circle cx="167.228" cy="365.595" r="4" fill="#0E4D3C" opacity=".12"/><circle cx="23.7792" cy="38.699" r="5" fill="#0E4D3C" opacity=".12"/><circle cx="288.008" cy="287.437" r="5" fill="#0E4D3C" opacity=".12"/><circle cx="481.326" cy="732.454" r="5" fill="#0E4D3C" opacity=".12"/><circle cx="471.89" cy="735.29" r="3" fill="#0E4D3C" opacity=".12"/><circle cx="1056" cy="468" r="400" fill="#DCE9E1" opacity=".9"/><circle cx="1056" cy="468" r="300" fill="#E8F0EA" /><path d="M586 468 a 470 470 0 0 1 470 -470" fill="none" stroke="#D9AD55" stroke-width="10" stroke-linecap="round" opacity=".7"/><g transform="translate(726 138) scale(1.65)"><circle cx="210" cy="200" r="140" fill="#0E4D3C" opacity=".10"/><circle cx="200" cy="190" r="140" fill="#0E4D3C" /><g fill="none" stroke="#DCE9E1" stroke-width="5" opacity=".55"><ellipse cx="200" cy="190" rx="60" ry="140"/><ellipse cx="200" cy="190" rx="115" ry="140"/><path d="M60 190h280M76 120h248M76 260h248M200 50v280"/></g><path d="M150 120c20-10 40 0 46 18s-14 24-6 40-20 30-40 20-30-40 0-78z" fill="#D9AD55" opacity=".9"/><path d="M236 210c22-6 46 8 44 30s-26 36-44 26-22-48 0-56z" fill="#D9AD55" opacity=".9"/><path d="M300 60c-26 0-46 20-46 46 0 34 46 80 46 80s46-46 46-80c0-26-20-46-46-46z" fill="#B4842A" /><circle cx="300" cy="104" r="16" fill="#FFFFFF" /></g><circle cx="262" cy="280" r="118" fill="#0E4D3C" opacity=".10"/><circle cx="256" cy="270" r="118" fill="#FFFFFF" /><g transform="translate(156 170) scale(.5)"><rect x="30" y="352" width="340" height="10" rx="5" fill="#DCE9E1" /><rect x="160" y="74" width="130" height="292" rx="10" fill="#0E4D3C" opacity=".10"/><rect x="150" y="60" width="130" height="292" rx="10" fill="#0E4D3C" /><rect x="166" y="82" width="24" height="20" rx="4" fill="#D9AD55" /><rect x="204" y="82" width="24" height="20" rx="4" fill="#2C6B57" /><rect x="242" y="82" width="24" height="20" rx="4" fill="#2C6B57" /><rect x="166" y="118" width="24" height="20" rx="4" fill="#2C6B57" /><rect x="204" y="118" width="24" height="20" rx="4" fill="#2C6B57" /><rect x="242" y="118" width="24" height="20" rx="4" fill="#2C6B57" /><rect x="166" y="154" width="24" height="20" rx="4" fill="#2C6B57" /><rect x="204" y="154" width="24" height="20" rx="4" fill="#2C6B57" /><rect x="242" y="154" width="24" height="20" rx="4" fill="#D9AD55" /><rect x="166" y="190" width="24" height="20" rx="4" fill="#2C6B57" /><rect x="204" y="190" width="24" height="20" rx="4" fill="#D9AD55" /><rect x="242" y="190" width="24" height="20" rx="4" fill="#2C6B57" /><rect x="166" y="226" width="24" height="20" rx="4" fill="#D9AD55" /><rect x="204" y="226" width="24" height="20" rx="4" fill="#2C6B57" /><rect x="242" y="226" width="24" height="20" rx="4" fill="#2C6B57" /><rect x="166" y="262" width="24" height="20" rx="4" fill="#2C6B57" /><rect x="204" y="262" width="24" height="20" rx="4" fill="#2C6B57" /><rect x="242" y="262" width="24" height="20" rx="4" fill="#2C6B57" /><rect x="166" y="298" width="24" height="20" rx="4" fill="#2C6B57" /><rect x="204" y="298" width="24" height="20" rx="4" fill="#2C6B57" /><rect x="242" y="298" width="24" height="20" rx="4" fill="#D9AD55" /><rect x="196" y="312" width="38" height="40" rx="4" fill="#F7F4EC" /><rect x="60" y="170" width="92" height="182" rx="8" fill="#81988B" /><rect x="76" y="190" width="22" height="20" rx="4" fill="#F7F4EC" /><rect x="112" y="190" width="22" height="20" rx="4" fill="#F7F4EC" /><rect x="76" y="228" width="22" height="20" rx="4" fill="#F7F4EC" /><rect x="112" y="228" width="22" height="20" rx="4" fill="#F7F4EC" /><rect x="76" y="266" width="22" height="20" rx="4" fill="#F7F4EC" /><rect x="112" y="266" width="22" height="20" rx="4" fill="#F7F4EC" /><rect x="76" y="304" width="22" height="20" rx="4" fill="#F7F4EC" /><rect x="112" y="304" width="22" height="20" rx="4" fill="#F7F4EC" /><rect x="278" y="220" width="82" height="132" rx="8" fill="#B4842A" /><rect x="294" y="240" width="50" height="16" rx="4" fill="#F3E6C8" /><rect x="294" y="274" width="50" height="16" rx="4" fill="#F3E6C8" /><rect x="294" y="308" width="50" height="16" rx="4" fill="#F3E6C8" /></g><circle cx="486" cy="640" r="118" fill="#0E4D3C" opacity=".10"/><circle cx="480" cy="630" r="118" fill="#FFFFFF" /><g transform="translate(380 530) scale(.5)"><circle cx="200" cy="200" r="150" fill="#DCE9E1" /><path d="M30 236l90-70 60 18 40 50-30 30-50-26-40 40z" fill="#0E4D3C" /><path d="M370 236l-90-70-70 10-48 44 18 22 50-20 34 30 30-6z" fill="#B4842A" /><path d="M150 220c18 18 30 30 46 42M176 200c20 18 34 32 50 44" fill="none" stroke="#FFFFFF" stroke-width="7" stroke-linecap="round" stroke-linejoin="round" /><rect x="10" y="230" width="46" height="70" rx="10" fill="#1F7A52" transform="rotate(-38 33 265)"/><rect x="344" y="230" width="46" height="70" rx="10" fill="#D9AD55" transform="rotate(38 367 265)"/></g><rect x="128" y="792" width="220" height="14" rx="7" fill="#0E4D3C" /><rect x="364" y="792" width="90" height="14" rx="7" fill="#D9AD55" /></svg>