<svg xmlns="http://www.w3.org/2000/svg" viewBox="0 0 1600 900" width="1600" height="900"><defs><linearGradient id="bg" x1="0" y1="0" x2="1" y2="1"><stop offset="0" stop-color="#EFF6F3"/><stop offset="1" stop-color="#D7ECE5"/></linearGradient></defs><rect x="0" y="0" width="1600" height="900" rx="0" fill="url(#bg)" /><circle cx="171.335" cy="489.806" r="4" fill="#0E4D3C" opacity=".12"/><circle cx="659.48" cy="426.648" r="5" fill="#0E4D3C" opacity=".12"/><circle cx="47.1808" cy="11.8512" r="4" fill="#0E4D3C" opacity=".12"/><circle cx="186.735" cy="210.898" r="5" fill="#0E4D3C" opacity=".12"/><circle cx="338.59" cy="752.815" r="4" fill="#0E4D3C" opacity=".12"/><circle cx="285.937" cy="774.92" r="3" fill="#0E4D3C" opacity=".12"/><circle cx="457.1" cy="781.241" r="5" fill="#0E4D3C" opacity=".12"/><circle cx="280.754" cy="13.6321" r="3" fill="#0E4D3C" opacity=".12"/><circle cx="114.768" cy="861.747" r="3" fill="#0E4D3C" opacity=".12"/><circle cx="216.913" cy="27.9106" r="4" fill="#0E4D3C" opacity=".12"/><circle cx="340.379" cy="646.942" r="4" fill="#0E4D3C" opacity=".12"/><circle cx="514.173" cy="828.989" r="4" fill="#0E4D3C" opacity=".12"/><circle cx="524.251" cy="519.219" r="3" fill="#0E4D3C" opacity=".12"/><circle cx="632.784" cy="87.7089" r="3" fill="#0E4D3C" opacity=".12"/><circle cx="356.316" cy="232.183" r="5" fill="#0E4D3C" opacity=".12"/><circle cx="314.037" cy="563.983" r="4" fill="#0E4D3C" opacity=".12"/><circle cx="303.227" cy="750.129" r="5" fill="#0E4D3C" opacity=".12"/><circle cx="252.656" cy="526.567" r="5" fill="#0E4D3C" opacity=".12"/><circle cx="167.318" cy="303.089" r="3" fill="#0E4D3C" opacity=".12"/><circle cx="616.608" cy="891.891" r="5" fill="#0E4D3C" opacity=".12"/><circle cx="500.807" cy="628.754" r="4" fill="#0E4D3C" opacity=".12"/><circle cx="694.536" cy="814.226" r="5" fill="#0E4D3C" opacity=".12"/><circle cx="74.9346" cy="589.96" r="5" fill="#0E4D3C" opacity=".12"/><circle cx="598.758" cy="516.179" r="4" fill="#0E4D3C" opacity=".12"/><circle cx="89.5931" cy="433.801" r="5" fill="#0E4D3C" opacity=".12"/><circle cx="712.66" cy="79.6663" r="3" fill="#0E4D3C" opacity=".12"/><circle cx="1056" cy="468" r="400" fill="#C3E3D9" opacity=".9"/><circle cx="1056" cy="468" r="300" fill="#E1F1EB" /><path d="M586 468 a 470 470 0 0 1 470 -470" fill="none" stroke="#D9AD55" stroke-width="10" stroke-linecap="round" opacity=".7"/><g transform="translate(726 138) scale(1.65)"><rect x="80" y="74" width="260" height="190" rx="16" fill="#0E4D3C" opacity=".10"/><rect x="70" y="60" width="260" height="190" rx="16" fill="#182B24" /><rect x="86" y="76" width="228" height="158" rx="8" fill="#F7F4EC" /><rect x="106" y="174" width="20" height="40" rx="4" fill="#0E4D3C" /><rect x="136" y="144" width="20" height="70" rx="4" fill="#0E4D3C" /><rect x="166" y="159" width="20" height="55" rx="4" fill="#0E4D3C" /><rect x="196" y="119" width="20" height="95" rx="4" fill="#B4842A" /><rect x="232" y="96" width="66" height="10" rx="5" fill="#0E4D3C" /><rect x="232" y="118" width="52" height="8" rx="4" fill="#C9D6CE" /><rect x="232" y="136" width="60" height="8" rx="4" fill="#C9D6CE" /><rect x="232" y="154" width="44" height="8" rx="4" fill="#C9D6CE" /><path d="M30 262h340l-24 38H54z" fill="#81988B" /><rect x="170" y="262" width="60" height="10" rx="5" fill="#6E8478" /></g><circle cx="262" cy="280" r="118" fill="#0E4D3C" opacity=".10"/><circle cx="256" cy="270" r="118" fill="#FFFFFF" /><g transform="translate(156 170) scale(.5)"><rect x="60" y="74" width="300" height="260" rx="22" fill="#0E4D3C" opacity=".10"/><rect x="50" y="60" width="300" height="260" rx="22" fill="#FFFFFF" /><rect x="76" y="110" width="248" height="3" rx="1" fill="#DCE9E1" /><rect x="76" y="160" width="248" height="3" rx="1" fill="#DCE9E1" /><rect x="76" y="210" width="248" height="3" rx="1" fill="#DCE9E1" /><rect x="76" y="260" width="248" height="3" rx="1" fill="#DCE9E1" /><rect x="86" y="220" width="32" height="70" rx="6" fill="#0E4D3C" /><rect x="136" y="180" width="32" height="110" rx="6" fill="#0E4D3C" /><rect x="186" y="195" width="32" height="95" rx="6" fill="#0E4D3C" /><rect x="236" y="140" width="32" height="150" rx="6" fill="#0E4D3C" /><rect x="286" y="100" width="32" height="190" rx="6" fill="#B4842A" /><path d="M96 210L150 170 196 186 250 120 306 84" fill="none" stroke="#D9AD55" stroke-width="8" stroke-linecap="round" stroke-linejoin="round" /><path d="M282 80h28v28" fill="none" stroke="#D9AD55" stroke-width="8" stroke-linecap="round" stroke-linejoin="round" /></g><circle cx="486" cy="640" r="118" fill="#0E4D3C" opacity=".10"/><circle cx="480" cy="630" r="118" fill="#FFFFFF" /><g transform="translate(380 530) scale(.5)"><rect x="120" y="64" width="200" height="270" rx="16" fill="#0E4D3C" opacity=".10"/><rect x="140" y="30" width="200" height="270" rx="16" fill="#DCE9E1" /><rect x="120" y="42" width="200" height="270" rx="16" fill="#F3E6C8" /><rect x="100" y="56" width="200" height="270" rx="16" fill="#FFFFFF" stroke="#DCE9E1" stroke-width="3"/><rect x="124" y="84" width="110" height="14" rx="7" fill="#0E4D3C" /><rect x="124" y="116" width="150" height="9" rx="4" fill="#C9D6CE" /><rect x="124" y="140" width="124" height="9" rx="4" fill="#C9D6CE" /><rect x="124" y="164" width="98" height="9" rx="4" fill="#C9D6CE" /><rect x="124" y="188" width="150" height="9" rx="4" fill="#C9D6CE" /><rect x="124" y="212" width="124" height="9" rx="4" fill="#C9D6CE" /><rect x="124" y="236" width="98" height="9" rx="4" fill="#C9D6CE" /><rect x="124" y="260" width="150" height="9" rx="4" fill="#C9D6CE" /><circle cx="258" cy="280" r="40" fill="none" stroke="#B4842A" stroke-width="7"/><path d="M240 282 l10.8 10.8 l21.6 -23.4" fill="none" stroke="#B4842A" stroke-width="7" stroke-linecap="round" stroke-linejoin="round" /></g><rect x="128" y="792" width="220" height="14" rx="7" fill="#0E4D3C" /><rect x="364" y="792" width="90" height="14" rx="7" fill="#D9AD55" /></svg>