<svg xmlns="http://www.w3.org/2000/svg" viewBox="0 0 1600 900" width="1600" height="900"><defs><linearGradient id="bg" x1="0" y1="0" x2="1" y2="1"><stop offset="0" stop-color="#F4F1E7"/><stop offset="1" stop-color="#E3EEE6"/></linearGradient></defs><rect x="0" y="0" width="1600" height="900" rx="0" fill="url(#bg)" /><circle cx="325.713" cy="503.795" r="4" fill="#0E4D3C" opacity=".12"/><circle cx="325.319" cy="769.541" r="3" fill="#0E4D3C" opacity=".12"/><circle cx="132.955" cy="460.718" r="5" fill="#0E4D3C" opacity=".12"/><circle cx="442.05" cy="167.556" r="4" fill="#0E4D3C" opacity=".12"/><circle cx="218.449" cy="81.6035" r="5" fill="#0E4D3C" opacity=".12"/><circle cx="456.806" cy="535.893" r="4" fill="#0E4D3C" opacity=".12"/><circle cx="694.626" cy="588.53" r="5" fill="#0E4D3C" opacity=".12"/><circle cx="468.051" cy="560.816" r="5" fill="#0E4D3C" opacity=".12"/><circle cx="45.4787" cy="32.0875" r="3" fill="#0E4D3C" opacity=".12"/><circle cx="431.725" cy="700.298" r="4" fill="#0E4D3C" opacity=".12"/><circle cx="317.182" cy="758.184" r="5" fill="#0E4D3C" opacity=".12"/><circle cx="168.225" cy="264.736" r="3" fill="#0E4D3C" opacity=".12"/><circle cx="476.964" cy="411.597" r="4" fill="#0E4D3C" opacity=".12"/><circle cx="292.881" cy="496.141" r="3" fill="#0E4D3C" opacity=".12"/><circle cx="509.623" cy="283.749" r="3" fill="#0E4D3C" opacity=".12"/><circle cx="369.277" cy="26.7767" r="5" fill="#0E4D3C" opacity=".12"/><circle cx="551.727" cy="360.36" r="4" fill="#0E4D3C" opacity=".12"/><circle cx="278.29" cy="862.238" r="5" fill="#0E4D3C" opacity=".12"/><circle cx="0.392355" cy="188.746" r="3" fill="#0E4D3C" opacity=".12"/><circle cx="338.391" cy="882.323" r="4" fill="#0E4D3C" opacity=".12"/><circle cx="302.25" cy="509.618" r="3" fill="#0E4D3C" opacity=".12"/><circle cx="560.528" cy="242.798" r="3" fill="#0E4D3C" opacity=".12"/><circle cx="224.071" cy="13.6346" r="4" fill="#0E4D3C" opacity=".12"/><circle cx="545.789" cy="106.193" r="3" fill="#0E4D3C" opacity=".12"/><circle cx="509.052" cy="9.85951" r="4" fill="#0E4D3C" opacity=".12"/><circle cx="573.855" cy="159.91" r="5" fill="#0E4D3C" opacity=".12"/><circle cx="1056" cy="468" r="400" fill="#D3E5DA" opacity=".9"/><circle cx="1056" cy="468" r="300" fill="#E6F0EA" /><path d="M586 468 a 470 470 0 0 1 470 -470" fill="none" stroke="#D9AD55" stroke-width="10" stroke-linecap="round" opacity=".7"/><g transform="translate(726 138) scale(1.65)"><ellipse cx="90" cy="328" rx="44" ry="16" fill="#8E6820"/><rect x="46" y="310" width="88" height="18" rx="0" fill="#B4842A" /><ellipse cx="90" cy="310" rx="44" ry="16" fill="#F3E6C8"/><ellipse cx="90" cy="302" rx="44" ry="16" fill="#8E6820"/><rect x="46" y="284" width="88" height="18" rx="0" fill="#B4842A" /><ellipse cx="90" cy="284" rx="44" ry="16" fill="#F3E6C8"/><ellipse cx="90" cy="276" rx="44" ry="16" fill="#8E6820"/><rect x="46" y="258" width="88" height="18" rx="0" fill="#B4842A" /><ellipse cx="90" cy="258" rx="44" ry="16" fill="#F3E6C8"/><ellipse cx="90" cy="250" rx="44" ry="16" fill="#8E6820"/><rect x="46" y="232" width="88" height="18" rx="0" fill="#B4842A" /><ellipse cx="90" cy="232" rx="44" ry="16" fill="#F3E6C8"/><ellipse cx="170" cy="328" rx="44" ry="16" fill="#8E6820"/><rect x="126" y="310" width="88" height="18" rx="0" fill="#D9AD55" /><ellipse cx="170" cy="310" rx="44" ry="16" fill="#F3E6C8"/><ellipse cx="170" cy="302" rx="44" ry="16" fill="#8E6820"/><rect x="126" y="284" width="88" height="18" rx="0" fill="#D9AD55" /><ellipse cx="170" cy="284" rx="44" ry="16" fill="#F3E6C8"/><ellipse cx="170" cy="276" rx="44" ry="16" fill="#8E6820"/><rect x="126" y="258" width="88" height="18" rx="0" fill="#D9AD55" /><ellipse cx="170" cy="258" rx="44" ry="16" fill="#F3E6C8"/><ellipse cx="170" cy="250" rx="44" ry="16" fill="#8E6820"/><rect x="126" y="232" width="88" height="18" rx="0" fill="#D9AD55" /><ellipse cx="170" cy="232" rx="44" ry="16" fill="#F3E6C8"/><ellipse cx="170" cy="224" rx="44" ry="16" fill="#8E6820"/><rect x="126" y="206" width="88" height="18" rx="0" fill="#D9AD55" /><ellipse cx="170" cy="206" rx="44" ry="16" fill="#F3E6C8"/><ellipse cx="170" cy="198" rx="44" ry="16" fill="#8E6820"/><rect x="126" y="180" width="88" height="18" rx="0" fill="#D9AD55" /><ellipse cx="170" cy="180" rx="44" ry="16" fill="#F3E6C8"/><ellipse cx="250" cy="328" rx="44" ry="16" fill="#8E6820"/><rect x="206" y="310" width="88" height="18" rx="0" fill="#B4842A" /><ellipse cx="250" cy="310" rx="44" ry="16" fill="#F3E6C8"/><ellipse cx="250" cy="302" rx="44" ry="16" fill="#8E6820"/><rect x="206" y="284" width="88" height="18" rx="0" fill="#B4842A" /><ellipse cx="250" cy="284" rx="44" ry="16" fill="#F3E6C8"/><ellipse cx="250" cy="276" rx="44" ry="16" fill="#8E6820"/><rect x="206" y="258" width="88" height="18" rx="0" fill="#B4842A" /><ellipse cx="250" cy="258" rx="44" ry="16" fill="#F3E6C8"/><circle cx="300" cy="130" r="62" fill="#0E4D3C" /><circle cx="300" cy="130" r="48" fill="none" stroke="#D9AD55" stroke-width="5"/><text x="300" y="152" text-anchor="middle" font-family="Segoe UI,Arial,sans-serif" font-size="66" font-weight="700" fill="#D9AD55">đ</text></g><circle cx="262" cy="280" r="118" fill="#0E4D3C" opacity=".10"/><circle cx="256" cy="270" r="118" fill="#FFFFFF" /><g transform="translate(156 170) scale(.5)"><rect x="120" y="54" width="180" height="300" rx="26" fill="#0E4D3C" opacity=".10"/><rect x="110" y="40" width="180" height="300" rx="26" fill="#0E4D3C" /><rect x="132" y="64" width="136" height="64" rx="12" fill="#F7F4EC" /><rect x="150" y="84" width="100" height="10" rx="5" fill="#DCE9E1" /><rect x="196" y="102" width="54" height="14" rx="6" fill="#1F7A52" /><rect x="132" y="148" width="38" height="34" rx="9" fill="#2C6B57" /><rect x="179" y="148" width="38" height="34" rx="9" fill="#2C6B57" /><rect x="226" y="148" width="38" height="34" rx="9" fill="#3B7A64" /><rect x="132" y="192" width="38" height="34" rx="9" fill="#2C6B57" /><rect x="179" y="192" width="38" height="34" rx="9" fill="#2C6B57" /><rect x="226" y="192" width="38" height="34" rx="9" fill="#3B7A64" /><rect x="132" y="236" width="38" height="34" rx="9" fill="#2C6B57" /><rect x="179" y="236" width="38" height="34" rx="9" fill="#2C6B57" /><rect x="226" y="236" width="38" height="34" rx="9" fill="#D9AD55" /><rect x="132" y="280" width="38" height="34" rx="9" fill="#2C6B57" /><rect x="179" y="280" width="38" height="34" rx="9" fill="#2C6B57" /><rect x="226" y="280" width="38" height="34" rx="9" fill="#D9AD55" /></g><circle cx="486" cy="640" r="118" fill="#0E4D3C" opacity=".10"/><circle cx="480" cy="630" r="118" fill="#FFFFFF" /><g transform="translate(380 530) scale(.5)"><rect x="60" y="74" width="300" height="260" rx="22" fill="#0E4D3C" opacity=".10"/><rect x="50" y="60" width="300" height="260" rx="22" fill="#FFFFFF" /><rect x="76" y="110" width="248" height="3" rx="1" fill="#DCE9E1" /><rect x="76" y="160" width="248" height="3" rx="1" fill="#DCE9E1" /><rect x="76" y="210" width="248" height="3" rx="1" fill="#DCE9E1" /><rect x="76" y="260" width="248" height="3" rx="1" fill="#DCE9E1" /><rect x="86" y="220" width="32" height="70" rx="6" fill="#0E4D3C" /><rect x="136" y="180" width="32" height="110" rx="6" fill="#0E4D3C" /><rect x="186" y="195" width="32" height="95" rx="6" fill="#0E4D3C" /><rect x="236" y="140" width="32" height="150" rx="6" fill="#0E4D3C" /><rect x="286" y="100" width="32" height="190" rx="6" fill="#B4842A" /><path d="M96 210L150 170 196 186 250 120 306 84" fill="none" stroke="#D9AD55" stroke-width="8" stroke-linecap="round" stroke-linejoin="round" /><path d="M282 80h28v28" fill="none" stroke="#D9AD55" stroke-width="8" stroke-linecap="round" stroke-linejoin="round" /></g><rect x="128" y="792" width="220" height="14" rx="7" fill="#0E4D3C" /><rect x="364" y="792" width="90" height="14" rx="7" fill="#D9AD55" /></svg>