<svg xmlns="http://www.w3.org/2000/svg" viewBox="0 0 1200 560" width="1200" height="560"><rect x="0" y="0" width="1200" height="560" rx="0" fill="#F1ECE0" /><circle cx="383.93" cy="102.222" r="3" fill="#0E4D3C" opacity=".12"/><circle cx="379.415" cy="164.599" r="3" fill="#0E4D3C" opacity=".12"/><circle cx="164.03" cy="496.05" r="5" fill="#0E4D3C" opacity=".12"/><circle cx="266.816" cy="542.022" r="4" fill="#0E4D3C" opacity=".12"/><circle cx="307.423" cy="289.445" r="5" fill="#0E4D3C" opacity=".12"/><circle cx="370.08" cy="287.825" r="3" fill="#0E4D3C" opacity=".12"/><circle cx="493.29" cy="316.048" r="4" fill="#0E4D3C" opacity=".12"/><circle cx="152.916" cy="442.7" r="5" fill="#0E4D3C" opacity=".12"/><circle cx="457.994" cy="34.7071" r="5" fill="#0E4D3C" opacity=".12"/><circle cx="194.248" cy="185.675" r="5" fill="#0E4D3C" opacity=".12"/><circle cx="245.693" cy="48.2267" r="3" fill="#0E4D3C" opacity=".12"/><circle cx="137.778" cy="468.37" r="5" fill="#0E4D3C" opacity=".12"/><circle cx="0.563735" cy="431.703" r="3" fill="#0E4D3C" opacity=".12"/><circle cx="249.329" cy="37.0693" r="3" fill="#0E4D3C" opacity=".12"/><circle cx="493.936" cy="202.139" r="3" fill="#0E4D3C" opacity=".12"/><circle cx="89.3555" cy="473.622" r="4" fill="#0E4D3C" opacity=".12"/><circle cx="149.457" cy="45.5148" r="4" fill="#0E4D3C" opacity=".12"/><circle cx="278.137" cy="431.017" r="3" fill="#0E4D3C" opacity=".12"/><circle cx="350.523" cy="68.0233" r="3" fill="#0E4D3C" opacity=".12"/><circle cx="323.546" cy="526.541" r="3" fill="#0E4D3C" opacity=".12"/><circle cx="339.876" cy="305.819" r="4" fill="#0E4D3C" opacity=".12"/><circle cx="85.9932" cy="322.637" r="4" fill="#0E4D3C" opacity=".12"/><circle cx="69.7852" cy="424.237" r="4" fill="#0E4D3C" opacity=".12"/><circle cx="418.194" cy="458.288" r="5" fill="#0E4D3C" opacity=".12"/><circle cx="460.677" cy="77.3232" r="3" fill="#0E4D3C" opacity=".12"/><circle cx="447.01" cy="33.0814" r="3" fill="#0E4D3C" opacity=".12"/><circle cx="600" cy="280" r="240" fill="#DCE9E1" /><g transform="translate(380 60) scale(1.1)"><ellipse cx="90" cy="328" rx="44" ry="16" fill="#8E6820"/><rect x="46" y="310" width="88" height="18" rx="0" fill="#B4842A" /><ellipse cx="90" cy="310" rx="44" ry="16" fill="#F3E6C8"/><ellipse cx="90" cy="302" rx="44" ry="16" fill="#8E6820"/><rect x="46" y="284" width="88" height="18" rx="0" fill="#B4842A" /><ellipse cx="90" cy="284" rx="44" ry="16" fill="#F3E6C8"/><ellipse cx="90" cy="276" rx="44" ry="16" fill="#8E6820"/><rect x="46" y="258" width="88" height="18" rx="0" fill="#B4842A" /><ellipse cx="90" cy="258" rx="44" ry="16" fill="#F3E6C8"/><ellipse cx="90" cy="250" rx="44" ry="16" fill="#8E6820"/><rect x="46" y="232" width="88" height="18" rx="0" fill="#B4842A" /><ellipse cx="90" cy="232" rx="44" ry="16" fill="#F3E6C8"/><ellipse cx="170" cy="328" rx="44" ry="16" fill="#8E6820"/><rect x="126" y="310" width="88" height="18" rx="0" fill="#D9AD55" /><ellipse cx="170" cy="310" rx="44" ry="16" fill="#F3E6C8"/><ellipse cx="170" cy="302" rx="44" ry="16" fill="#8E6820"/><rect x="126" y="284" width="88" height="18" rx="0" fill="#D9AD55" /><ellipse cx="170" cy="284" rx="44" ry="16" fill="#F3E6C8"/><ellipse cx="170" cy="276" rx="44" ry="16" fill="#8E6820"/><rect x="126" y="258" width="88" height="18" rx="0" fill="#D9AD55" /><ellipse cx="170" cy="258" rx="44" ry="16" fill="#F3E6C8"/><ellipse cx="170" cy="250" rx="44" ry="16" fill="#8E6820"/><rect x="126" y="232" width="88" height="18" rx="0" fill="#D9AD55" /><ellipse cx="170" cy="232" rx="44" ry="16" fill="#F3E6C8"/><ellipse cx="170" cy="224" rx="44" ry="16" fill="#8E6820"/><rect x="126" y="206" width="88" height="18" rx="0" fill="#D9AD55" /><ellipse cx="170" cy="206" rx="44" ry="16" fill="#F3E6C8"/><ellipse cx="170" cy="198" rx="44" ry="16" fill="#8E6820"/><rect x="126" y="180" width="88" height="18" rx="0" fill="#D9AD55" /><ellipse cx="170" cy="180" rx="44" ry="16" fill="#F3E6C8"/><ellipse cx="250" cy="328" rx="44" ry="16" fill="#8E6820"/><rect x="206" y="310" width="88" height="18" rx="0" fill="#B4842A" /><ellipse cx="250" cy="310" rx="44" ry="16" fill="#F3E6C8"/><ellipse cx="250" cy="302" rx="44" ry="16" fill="#8E6820"/><rect x="206" y="284" width="88" height="18" rx="0" fill="#B4842A" /><ellipse cx="250" cy="284" rx="44" ry="16" fill="#F3E6C8"/><ellipse cx="250" cy="276" rx="44" ry="16" fill="#8E6820"/><rect x="206" y="258" width="88" height="18" rx="0" fill="#B4842A" /><ellipse cx="250" cy="258" rx="44" ry="16" fill="#F3E6C8"/><circle cx="300" cy="130" r="62" fill="#0E4D3C" /><circle cx="300" cy="130" r="48" fill="none" stroke="#D9AD55" stroke-width="5"/><text x="300" y="152" text-anchor="middle" font-family="Segoe UI,Arial,sans-serif" font-size="66" font-weight="700" fill="#D9AD55">đ</text></g><circle cx="204" cy="280" r="108" fill="#FFFFFF" /><g transform="translate(112 188) scale(.46)"><rect x="120" y="54" width="180" height="300" rx="26" fill="#0E4D3C" opacity=".10"/><rect x="110" y="40" width="180" height="300" rx="26" fill="#0E4D3C" /><rect x="132" y="64" width="136" height="64" rx="12" fill="#F7F4EC" /><rect x="150" y="84" width="100" height="10" rx="5" fill="#DCE9E1" /><rect x="196" y="102" width="54" height="14" rx="6" fill="#1F7A52" /><rect x="132" y="148" width="38" height="34" rx="9" fill="#2C6B57" /><rect x="179" y="148" width="38" height="34" rx="9" fill="#2C6B57" /><rect x="226" y="148" width="38" height="34" rx="9" fill="#3B7A64" /><rect x="132" y="192" width="38" height="34" rx="9" fill="#2C6B57" /><rect x="179" y="192" width="38" height="34" rx="9" fill="#2C6B57" /><rect x="226" y="192" width="38" height="34" rx="9" fill="#3B7A64" /><rect x="132" y="236" width="38" height="34" rx="9" fill="#2C6B57" /><rect x="179" y="236" width="38" height="34" rx="9" fill="#2C6B57" /><rect x="226" y="236" width="38" height="34" rx="9" fill="#D9AD55" /><rect x="132" y="280" width="38" height="34" rx="9" fill="#2C6B57" /><rect x="179" y="280" width="38" height="34" rx="9" fill="#2C6B57" /><rect x="226" y="280" width="38" height="34" rx="9" fill="#D9AD55" /></g><circle cx="996" cy="280" r="108" fill="#FFFFFF" /><g transform="translate(904 188) scale(.46)"><rect x="60" y="74" width="300" height="260" rx="22" fill="#0E4D3C" opacity=".10"/><rect x="50" y="60" width="300" height="260" rx="22" fill="#FFFFFF" /><rect x="76" y="110" width="248" height="3" rx="1" fill="#DCE9E1" /><rect x="76" y="160" width="248" height="3" rx="1" fill="#DCE9E1" /><rect x="76" y="210" width="248" height="3" rx="1" fill="#DCE9E1" /><rect x="76" y="260" width="248" height="3" rx="1" fill="#DCE9E1" /><rect x="86" y="220" width="32" height="70" rx="6" fill="#0E4D3C" /><rect x="136" y="180" width="32" height="110" rx="6" fill="#0E4D3C" /><rect x="186" y="195" width="32" height="95" rx="6" fill="#0E4D3C" /><rect x="236" y="140" width="32" height="150" rx="6" fill="#0E4D3C" /><rect x="286" y="100" width="32" height="190" rx="6" fill="#B4842A" /><path d="M96 210L150 170 196 186 250 120 306 84" fill="none" stroke="#D9AD55" stroke-width="8" stroke-linecap="round" stroke-linejoin="round" /><path d="M282 80h28v28" fill="none" stroke="#D9AD55" stroke-width="8" stroke-linecap="round" stroke-linejoin="round" /></g><path d="M316 280 C 360 112 396 112 355 235.2" fill="none" stroke="#D9AD55" stroke-width="5" stroke-linecap="round" stroke-linejoin="round" stroke-dasharray="2 14"/><path d="M845 324.8 C 804 448 840 448 884 280" fill="none" stroke="#D9AD55" stroke-width="5" stroke-linecap="round" stroke-linejoin="round" stroke-dasharray="2 14"/></svg>