<svg xmlns="http://www.w3.org/2000/svg" viewBox="0 0 1200 560" width="1200" height="560"><rect x="0" y="0" width="1200" height="560" rx="0" fill="#F1ECE0" /><circle cx="57.6874" cy="393.448" r="5" fill="#0E4D3C" opacity=".12"/><circle cx="284.64" cy="138.284" r="5" fill="#0E4D3C" opacity=".12"/><circle cx="138.119" cy="411.073" r="5" fill="#0E4D3C" opacity=".12"/><circle cx="242.86" cy="261.306" r="4" fill="#0E4D3C" opacity=".12"/><circle cx="212.657" cy="508.997" r="4" fill="#0E4D3C" opacity=".12"/><circle cx="120.564" cy="504.819" r="4" fill="#0E4D3C" opacity=".12"/><circle cx="436.239" cy="201.975" r="5" fill="#0E4D3C" opacity=".12"/><circle cx="341.099" cy="83.834" r="5" fill="#0E4D3C" opacity=".12"/><circle cx="359.333" cy="154.185" r="3" fill="#0E4D3C" opacity=".12"/><circle cx="351.917" cy="68.8948" r="4" fill="#0E4D3C" opacity=".12"/><circle cx="15.0052" cy="153.471" r="4" fill="#0E4D3C" opacity=".12"/><circle cx="217.985" cy="554.642" r="4" fill="#0E4D3C" opacity=".12"/><circle cx="484.062" cy="52.8609" r="5" fill="#0E4D3C" opacity=".12"/><circle cx="370.917" cy="62.4576" r="5" fill="#0E4D3C" opacity=".12"/><circle cx="344.205" cy="203.984" r="3" fill="#0E4D3C" opacity=".12"/><circle cx="403.382" cy="272.512" r="5" fill="#0E4D3C" opacity=".12"/><circle cx="104.673" cy="253.457" r="3" fill="#0E4D3C" opacity=".12"/><circle cx="261.759" cy="157.542" r="4" fill="#0E4D3C" opacity=".12"/><circle cx="55.3111" cy="458.152" r="3" fill="#0E4D3C" opacity=".12"/><circle cx="150.461" cy="66.2366" r="3" fill="#0E4D3C" opacity=".12"/><circle cx="399.784" cy="63.7698" r="5" fill="#0E4D3C" opacity=".12"/><circle cx="316.41" cy="238.106" r="5" fill="#0E4D3C" opacity=".12"/><circle cx="90.9213" cy="216.545" r="4" fill="#0E4D3C" opacity=".12"/><circle cx="261.83" cy="244.744" r="5" fill="#0E4D3C" opacity=".12"/><circle cx="446.411" cy="143.572" r="4" fill="#0E4D3C" opacity=".12"/><circle cx="127.582" cy="484.654" r="4" fill="#0E4D3C" opacity=".12"/><circle cx="600" cy="280" r="240" fill="#DCE9E1" /><g transform="translate(380 60) scale(1.1)"><rect x="30" y="352" width="340" height="10" rx="5" fill="#DCE9E1" /><rect x="160" y="74" width="130" height="292" rx="10" fill="#0E4D3C" opacity=".10"/><rect x="150" y="60" width="130" height="292" rx="10" fill="#0E4D3C" /><rect x="166" y="82" width="24" height="20" rx="4" fill="#D9AD55" /><rect x="204" y="82" width="24" height="20" rx="4" fill="#2C6B57" /><rect x="242" y="82" width="24" height="20" rx="4" fill="#2C6B57" /><rect x="166" y="118" width="24" height="20" rx="4" fill="#2C6B57" /><rect x="204" y="118" width="24" height="20" rx="4" fill="#2C6B57" /><rect x="242" y="118" width="24" height="20" rx="4" fill="#2C6B57" /><rect x="166" y="154" width="24" height="20" rx="4" fill="#2C6B57" /><rect x="204" y="154" width="24" height="20" rx="4" fill="#2C6B57" /><rect x="242" y="154" width="24" height="20" rx="4" fill="#D9AD55" /><rect x="166" y="190" width="24" height="20" rx="4" fill="#2C6B57" /><rect x="204" y="190" width="24" height="20" rx="4" fill="#D9AD55" /><rect x="242" y="190" width="24" height="20" rx="4" fill="#2C6B57" /><rect x="166" y="226" width="24" height="20" rx="4" fill="#D9AD55" /><rect x="204" y="226" width="24" height="20" rx="4" fill="#2C6B57" /><rect x="242" y="226" width="24" height="20" rx="4" fill="#2C6B57" /><rect x="166" y="262" width="24" height="20" rx="4" fill="#2C6B57" /><rect x="204" y="262" width="24" height="20" rx="4" fill="#2C6B57" /><rect x="242" y="262" width="24" height="20" rx="4" fill="#2C6B57" /><rect x="166" y="298" width="24" height="20" rx="4" fill="#2C6B57" /><rect x="204" y="298" width="24" height="20" rx="4" fill="#2C6B57" /><rect x="242" y="298" width="24" height="20" rx="4" fill="#D9AD55" /><rect x="196" y="312" width="38" height="40" rx="4" fill="#F7F4EC" /><rect x="60" y="170" width="92" height="182" rx="8" fill="#81988B" /><rect x="76" y="190" width="22" height="20" rx="4" fill="#F7F4EC" /><rect x="112" y="190" width="22" height="20" rx="4" fill="#F7F4EC" /><rect x="76" y="228" width="22" height="20" rx="4" fill="#F7F4EC" /><rect x="112" y="228" width="22" height="20" rx="4" fill="#F7F4EC" /><rect x="76" y="266" width="22" height="20" rx="4" fill="#F7F4EC" /><rect x="112" y="266" width="22" height="20" rx="4" fill="#F7F4EC" /><rect x="76" y="304" width="22" height="20" rx="4" fill="#F7F4EC" /><rect x="112" y="304" width="22" height="20" rx="4" fill="#F7F4EC" /><rect x="278" y="220" width="82" height="132" rx="8" fill="#B4842A" /><rect x="294" y="240" width="50" height="16" rx="4" fill="#F3E6C8" /><rect x="294" y="274" width="50" height="16" rx="4" fill="#F3E6C8" /><rect x="294" y="308" width="50" height="16" rx="4" fill="#F3E6C8" /></g><circle cx="204" cy="280" r="108" fill="#FFFFFF" /><g transform="translate(112 188) scale(.46)"><rect x="120" y="64" width="200" height="270" rx="16" fill="#0E4D3C" opacity=".10"/><rect x="140" y="30" width="200" height="270" rx="16" fill="#DCE9E1" /><rect x="120" y="42" width="200" height="270" rx="16" fill="#F3E6C8" /><rect x="100" y="56" width="200" height="270" rx="16" fill="#FFFFFF" stroke="#DCE9E1" stroke-width="3"/><rect x="124" y="84" width="110" height="14" rx="7" fill="#0E4D3C" /><rect x="124" y="116" width="150" height="9" rx="4" fill="#C9D6CE" /><rect x="124" y="140" width="124" height="9" rx="4" fill="#C9D6CE" /><rect x="124" y="164" width="98" height="9" rx="4" fill="#C9D6CE" /><rect x="124" y="188" width="150" height="9" rx="4" fill="#C9D6CE" /><rect x="124" y="212" width="124" height="9" rx="4" fill="#C9D6CE" /><rect x="124" y="236" width="98" height="9" rx="4" fill="#C9D6CE" /><rect x="124" y="260" width="150" height="9" rx="4" fill="#C9D6CE" /><circle cx="258" cy="280" r="40" fill="none" stroke="#B4842A" stroke-width="7"/><path d="M240 282 l10.8 10.8 l21.6 -23.4" fill="none" stroke="#B4842A" stroke-width="7" stroke-linecap="round" stroke-linejoin="round" /></g><circle cx="996" cy="280" r="108" fill="#FFFFFF" /><g transform="translate(904 188) scale(.46)"><circle cx="200" cy="200" r="150" fill="#DCE9E1" /><path d="M30 236l90-70 60 18 40 50-30 30-50-26-40 40z" fill="#0E4D3C" /><path d="M370 236l-90-70-70 10-48 44 18 22 50-20 34 30 30-6z" fill="#B4842A" /><path d="M150 220c18 18 30 30 46 42M176 200c20 18 34 32 50 44" fill="none" stroke="#FFFFFF" stroke-width="7" stroke-linecap="round" stroke-linejoin="round" /><rect x="10" y="230" width="46" height="70" rx="10" fill="#1F7A52" transform="rotate(-38 33 265)"/><rect x="344" y="230" width="46" height="70" rx="10" fill="#D9AD55" transform="rotate(38 367 265)"/></g><path d="M316 280 C 360 112 396 112 355 235.2" fill="none" stroke="#D9AD55" stroke-width="5" stroke-linecap="round" stroke-linejoin="round" stroke-dasharray="2 14"/><path d="M845 324.8 C 804 448 840 448 884 280" fill="none" stroke="#D9AD55" stroke-width="5" stroke-linecap="round" stroke-linejoin="round" stroke-dasharray="2 14"/></svg>