<svg xmlns="http://www.w3.org/2000/svg" viewBox="0 0 1200 560" width="1200" height="560"><rect x="0" y="0" width="1200" height="560" rx="0" fill="#F1ECE0" /><circle cx="400.501" cy="526.85" r="5" fill="#0E4D3C" opacity=".12"/><circle cx="445.634" cy="280.437" r="5" fill="#0E4D3C" opacity=".12"/><circle cx="313.078" cy="241.846" r="4" fill="#0E4D3C" opacity=".12"/><circle cx="388.816" cy="378.095" r="4" fill="#0E4D3C" opacity=".12"/><circle cx="525.782" cy="202.302" r="5" fill="#0E4D3C" opacity=".12"/><circle cx="350.332" cy="436.486" r="3" fill="#0E4D3C" opacity=".12"/><circle cx="22.5641" cy="410.783" r="3" fill="#0E4D3C" opacity=".12"/><circle cx="468.341" cy="31.0662" r="5" fill="#0E4D3C" opacity=".12"/><circle cx="96.7189" cy="436.18" r="3" fill="#0E4D3C" opacity=".12"/><circle cx="285.245" cy="237.482" r="5" fill="#0E4D3C" opacity=".12"/><circle cx="202.588" cy="71.133" r="5" fill="#0E4D3C" opacity=".12"/><circle cx="485.007" cy="542.926" r="5" fill="#0E4D3C" opacity=".12"/><circle cx="537.397" cy="82.98" r="5" fill="#0E4D3C" opacity=".12"/><circle cx="186.832" cy="438.524" r="3" fill="#0E4D3C" opacity=".12"/><circle cx="6.20924" cy="529.925" r="4" fill="#0E4D3C" opacity=".12"/><circle cx="405.738" cy="388.159" r="3" fill="#0E4D3C" opacity=".12"/><circle cx="108.055" cy="238.677" r="4" fill="#0E4D3C" opacity=".12"/><circle cx="66.0955" cy="414.817" r="4" fill="#0E4D3C" opacity=".12"/><circle cx="95.6238" cy="446.62" r="3" fill="#0E4D3C" opacity=".12"/><circle cx="506.445" cy="230.045" r="3" fill="#0E4D3C" opacity=".12"/><circle cx="412.135" cy="50.9639" r="5" fill="#0E4D3C" opacity=".12"/><circle cx="192.356" cy="197.318" r="4" fill="#0E4D3C" opacity=".12"/><circle cx="473.495" cy="489.359" r="5" fill="#0E4D3C" opacity=".12"/><circle cx="130.878" cy="210.234" r="4" fill="#0E4D3C" opacity=".12"/><circle cx="441.949" cy="281.653" r="4" fill="#0E4D3C" opacity=".12"/><circle cx="205.336" cy="355.946" r="3" fill="#0E4D3C" opacity=".12"/><circle cx="600" cy="280" r="240" fill="#DCE9E1" /><g transform="translate(380 60) scale(1.1)"><rect x="80" y="84" width="260" height="260" rx="22" fill="#0E4D3C" opacity=".10"/><rect x="70" y="70" width="260" height="260" rx="22" fill="#FFFFFF" /><rect x="70" y="70" width="260" height="70" rx="22" fill="#0E4D3C" /><rect x="70" y="120" width="260" height="22" rx="0" fill="#0E4D3C" /><rect x="120" y="52" width="14" height="44" rx="7" fill="#B4842A" /><rect x="266" y="52" width="14" height="44" rx="7" fill="#B4842A" /><rect x="92" y="160" width="34" height="28" rx="7" fill="#DCE9E1" /><rect x="138" y="160" width="34" height="28" rx="7" fill="#DCE9E1" /><rect x="184" y="160" width="34" height="28" rx="7" fill="#DCE9E1" /><rect x="230" y="160" width="34" height="28" rx="7" fill="#DCE9E1" /><rect x="276" y="160" width="34" height="28" rx="7" fill="#DCE9E1" /><rect x="92" y="200" width="34" height="28" rx="7" fill="#DCE9E1" /><rect x="138" y="200" width="34" height="28" rx="7" fill="#DCE9E1" /><rect x="184" y="200" width="34" height="28" rx="7" fill="#DCE9E1" /><rect x="230" y="200" width="34" height="28" rx="7" fill="#D9AD55" /><rect x="276" y="200" width="34" height="28" rx="7" fill="#DCE9E1" /><rect x="92" y="240" width="34" height="28" rx="7" fill="#DCE9E1" /><rect x="138" y="240" width="34" height="28" rx="7" fill="#DCE9E1" /><rect x="184" y="240" width="34" height="28" rx="7" fill="#DCE9E1" /><rect x="230" y="240" width="34" height="28" rx="7" fill="#DCE9E1" /><rect x="276" y="240" width="34" height="28" rx="7" fill="#DCE9E1" /><rect x="92" y="280" width="34" height="28" rx="7" fill="#DCE9E1" /><rect x="138" y="280" width="34" height="28" rx="7" fill="#D9AD55" /><rect x="184" y="280" width="34" height="28" rx="7" fill="#DCE9E1" /><rect x="230" y="280" width="34" height="28" rx="7" fill="#DCE9E1" /><rect x="276" y="280" width="34" height="28" rx="7" fill="#DCE9E1" /><circle cx="290" cy="300" r="46" fill="#B4842A" /><path d="M268 302 l12 12 l24 -26" fill="none" stroke="#FFFFFF" stroke-width="8" stroke-linecap="round" stroke-linejoin="round" /></g><circle cx="204" cy="280" r="108" fill="#FFFFFF" /><g transform="translate(112 188) scale(.46)"><rect x="100" y="64" width="220" height="300" rx="18" fill="#0E4D3C" opacity=".10"/><rect x="90" y="50" width="220" height="300" rx="18" fill="#FFFFFF" stroke="#DCE9E1" stroke-width="3"/><rect x="150" y="34" width="100" height="40" rx="12" fill="#0E4D3C" /><circle cx="200" cy="40" r="9" fill="#D9AD55" /><rect x="114" y="102" width="30" height="30" rx="8" fill="#0E4D3C" /><path d="M119 115 l8.4 8.4 l16.8 -18.2" fill="none" stroke="#FFFFFF" stroke-width="5" stroke-linecap="round" stroke-linejoin="round" /><rect x="158" y="112" width="120" height="10" rx="5" fill="#C9D6CE" /><rect x="114" y="148" width="30" height="30" rx="8" fill="#0E4D3C" /><path d="M119 161 l8.4 8.4 l16.8 -18.2" fill="none" stroke="#FFFFFF" stroke-width="5" stroke-linecap="round" stroke-linejoin="round" /><rect x="158" y="158" width="90" height="10" rx="5" fill="#C9D6CE" /><rect x="114" y="194" width="30" height="30" rx="8" fill="#0E4D3C" /><path d="M119 207 l8.4 8.4 l16.8 -18.2" fill="none" stroke="#FFFFFF" stroke-width="5" stroke-linecap="round" stroke-linejoin="round" /><rect x="158" y="204" width="120" height="10" rx="5" fill="#C9D6CE" /><rect x="114" y="240" width="30" height="30" rx="8" fill="#DCE9E1" /><rect x="158" y="250" width="90" height="10" rx="5" fill="#DCE9E1" /><rect x="114" y="286" width="30" height="30" rx="8" fill="#DCE9E1" /><rect x="158" y="296" width="120" height="10" rx="5" fill="#DCE9E1" /></g><circle cx="996" cy="280" r="108" fill="#FFFFFF" /><g transform="translate(904 188) scale(.46)"><rect x="120" y="64" width="200" height="270" rx="16" fill="#0E4D3C" opacity=".10"/><rect x="140" y="30" width="200" height="270" rx="16" fill="#DCE9E1" /><rect x="120" y="42" width="200" height="270" rx="16" fill="#F3E6C8" /><rect x="100" y="56" width="200" height="270" rx="16" fill="#FFFFFF" stroke="#DCE9E1" stroke-width="3"/><rect x="124" y="84" width="110" height="14" rx="7" fill="#0E4D3C" /><rect x="124" y="116" width="150" height="9" rx="4" fill="#C9D6CE" /><rect x="124" y="140" width="124" height="9" rx="4" fill="#C9D6CE" /><rect x="124" y="164" width="98" height="9" rx="4" fill="#C9D6CE" /><rect x="124" y="188" width="150" height="9" rx="4" fill="#C9D6CE" /><rect x="124" y="212" width="124" height="9" rx="4" fill="#C9D6CE" /><rect x="124" y="236" width="98" height="9" rx="4" fill="#C9D6CE" /><rect x="124" y="260" width="150" height="9" rx="4" fill="#C9D6CE" /><path d="M270 150l90 156H180z" fill="#B4842A" stroke="#B4842A" stroke-width="14" stroke-linejoin="round"/><rect x="263" y="196" width="14" height="62" rx="7" fill="#FFFFFF" /><circle cx="270" cy="278" r="9" fill="#FFFFFF" /></g><path d="M316 280 C 360 112 396 112 355 235.2" fill="none" stroke="#D9AD55" stroke-width="5" stroke-linecap="round" stroke-linejoin="round" stroke-dasharray="2 14"/><path d="M845 324.8 C 804 448 840 448 884 280" fill="none" stroke="#D9AD55" stroke-width="5" stroke-linecap="round" stroke-linejoin="round" stroke-dasharray="2 14"/></svg>