<svg xmlns="http://www.w3.org/2000/svg" viewBox="0 0 1600 900" width="1600" height="900"><defs><linearGradient id="bg" x1="0" y1="0" x2="1" y2="1"><stop offset="0" stop-color="#F7F4EC"/><stop offset="1" stop-color="#F3E6C8"/></linearGradient></defs><rect x="0" y="0" width="1600" height="900" rx="0" fill="url(#bg)" /><circle cx="163.228" cy="866.066" r="3" fill="#0E4D3C" opacity=".12"/><circle cx="139.044" cy="39.4006" r="3" fill="#0E4D3C" opacity=".12"/><circle cx="178.158" cy="899.216" r="3" fill="#0E4D3C" opacity=".12"/><circle cx="288.511" cy="27.2644" r="4" fill="#0E4D3C" opacity=".12"/><circle cx="326.255" cy="445.484" r="3" fill="#0E4D3C" opacity=".12"/><circle cx="646.084" cy="362.415" r="4" fill="#0E4D3C" opacity=".12"/><circle cx="168.612" cy="17.9922" r="4" fill="#0E4D3C" opacity=".12"/><circle cx="374.528" cy="426.891" r="4" fill="#0E4D3C" opacity=".12"/><circle cx="522.721" cy="596.666" r="3" fill="#0E4D3C" opacity=".12"/><circle cx="713.954" cy="56.7798" r="5" fill="#0E4D3C" opacity=".12"/><circle cx="597.263" cy="96.956" r="3" fill="#0E4D3C" opacity=".12"/><circle cx="243.676" cy="622.171" r="4" fill="#0E4D3C" opacity=".12"/><circle cx="650.442" cy="465.13" r="3" fill="#0E4D3C" opacity=".12"/><circle cx="418.706" cy="127.924" r="3" fill="#0E4D3C" opacity=".12"/><circle cx="388.595" cy="33.7183" r="5" fill="#0E4D3C" opacity=".12"/><circle cx="139.575" cy="851.44" r="5" fill="#0E4D3C" opacity=".12"/><circle cx="328.509" cy="525.93" r="4" fill="#0E4D3C" opacity=".12"/><circle cx="205.67" cy="321.027" r="4" fill="#0E4D3C" opacity=".12"/><circle cx="97.1825" cy="687.866" r="3" fill="#0E4D3C" opacity=".12"/><circle cx="382.902" cy="282.408" r="4" fill="#0E4D3C" opacity=".12"/><circle cx="684" cy="759.144" r="5" fill="#0E4D3C" opacity=".12"/><circle cx="449.27" cy="277.912" r="4" fill="#0E4D3C" opacity=".12"/><circle cx="380.679" cy="458.812" r="3" fill="#0E4D3C" opacity=".12"/><circle cx="581.848" cy="771.05" r="5" fill="#0E4D3C" opacity=".12"/><circle cx="392.354" cy="309.782" r="3" fill="#0E4D3C" opacity=".12"/><circle cx="212.909" cy="197.812" r="3" fill="#0E4D3C" opacity=".12"/><circle cx="1056" cy="468" r="400" fill="#DCE9E1" opacity=".9"/><circle cx="1056" cy="468" r="300" fill="#E8F0EA" /><path d="M586 468 a 470 470 0 0 1 470 -470" fill="none" stroke="#D9AD55" stroke-width="10" stroke-linecap="round" opacity=".7"/><g transform="translate(726 138) scale(1.65)"><rect x="120" y="64" width="200" height="270" rx="16" fill="#0E4D3C" opacity=".10"/><rect x="140" y="30" width="200" height="270" rx="16" fill="#DCE9E1" /><rect x="120" y="42" width="200" height="270" rx="16" fill="#F3E6C8" /><rect x="100" y="56" width="200" height="270" rx="16" fill="#FFFFFF" stroke="#DCE9E1" stroke-width="3"/><rect x="124" y="84" width="110" height="14" rx="7" fill="#0E4D3C" /><rect x="124" y="116" width="150" height="9" rx="4" fill="#C9D6CE" /><rect x="124" y="140" width="124" height="9" rx="4" fill="#C9D6CE" /><rect x="124" y="164" width="98" height="9" rx="4" fill="#C9D6CE" /><rect x="124" y="188" width="150" height="9" rx="4" fill="#C9D6CE" /><rect x="124" y="212" width="124" height="9" rx="4" fill="#C9D6CE" /><rect x="124" y="236" width="98" height="9" rx="4" fill="#C9D6CE" /><rect x="124" y="260" width="150" height="9" rx="4" fill="#C9D6CE" /><path d="M270 150l90 156H180z" fill="#B4842A" stroke="#B4842A" stroke-width="14" stroke-linejoin="round"/><rect x="263" y="196" width="14" height="62" rx="7" fill="#FFFFFF" /><circle cx="270" cy="278" r="9" fill="#FFFFFF" /></g><circle cx="262" cy="280" r="118" fill="#0E4D3C" opacity=".10"/><circle cx="256" cy="270" r="118" fill="#FFFFFF" /><g transform="translate(156 170) scale(.5)"><rect x="80" y="84" width="260" height="260" rx="22" fill="#0E4D3C" opacity=".10"/><rect x="70" y="70" width="260" height="260" rx="22" fill="#FFFFFF" /><rect x="70" y="70" width="260" height="70" rx="22" fill="#0E4D3C" /><rect x="70" y="120" width="260" height="22" rx="0" fill="#0E4D3C" /><rect x="120" y="52" width="14" height="44" rx="7" fill="#B4842A" /><rect x="266" y="52" width="14" height="44" rx="7" fill="#B4842A" /><rect x="92" y="160" width="34" height="28" rx="7" fill="#DCE9E1" /><rect x="138" y="160" width="34" height="28" rx="7" fill="#DCE9E1" /><rect x="184" y="160" width="34" height="28" rx="7" fill="#DCE9E1" /><rect x="230" y="160" width="34" height="28" rx="7" fill="#DCE9E1" /><rect x="276" y="160" width="34" height="28" rx="7" fill="#DCE9E1" /><rect x="92" y="200" width="34" height="28" rx="7" fill="#DCE9E1" /><rect x="138" y="200" width="34" height="28" rx="7" fill="#DCE9E1" /><rect x="184" y="200" width="34" height="28" rx="7" fill="#DCE9E1" /><rect x="230" y="200" width="34" height="28" rx="7" fill="#D9AD55" /><rect x="276" y="200" width="34" height="28" rx="7" fill="#DCE9E1" /><rect x="92" y="240" width="34" height="28" rx="7" fill="#DCE9E1" /><rect x="138" y="240" width="34" height="28" rx="7" fill="#DCE9E1" /><rect x="184" y="240" width="34" height="28" rx="7" fill="#DCE9E1" /><rect x="230" y="240" width="34" height="28" rx="7" fill="#DCE9E1" /><rect x="276" y="240" width="34" height="28" rx="7" fill="#DCE9E1" /><rect x="92" y="280" width="34" height="28" rx="7" fill="#DCE9E1" /><rect x="138" y="280" width="34" height="28" rx="7" fill="#D9AD55" /><rect x="184" y="280" width="34" height="28" rx="7" fill="#DCE9E1" /><rect x="230" y="280" width="34" height="28" rx="7" fill="#DCE9E1" /><rect x="276" y="280" width="34" height="28" rx="7" fill="#DCE9E1" /><circle cx="290" cy="300" r="46" fill="#B4842A" /><path d="M268 302 l12 12 l24 -26" fill="none" stroke="#FFFFFF" stroke-width="8" stroke-linecap="round" stroke-linejoin="round" /></g><circle cx="486" cy="640" r="118" fill="#0E4D3C" opacity=".10"/><circle cx="480" cy="630" r="118" fill="#FFFFFF" /><g transform="translate(380 530) scale(.5)"><ellipse cx="90" cy="328" rx="44" ry="16" fill="#8E6820"/><rect x="46" y="310" width="88" height="18" rx="0" fill="#B4842A" /><ellipse cx="90" cy="310" rx="44" ry="16" fill="#F3E6C8"/><ellipse cx="90" cy="302" rx="44" ry="16" fill="#8E6820"/><rect x="46" y="284" width="88" height="18" rx="0" fill="#B4842A" /><ellipse cx="90" cy="284" rx="44" ry="16" fill="#F3E6C8"/><ellipse cx="90" cy="276" rx="44" ry="16" fill="#8E6820"/><rect x="46" y="258" width="88" height="18" rx="0" fill="#B4842A" /><ellipse cx="90" cy="258" rx="44" ry="16" fill="#F3E6C8"/><ellipse cx="90" cy="250" rx="44" ry="16" fill="#8E6820"/><rect x="46" y="232" width="88" height="18" rx="0" fill="#B4842A" /><ellipse cx="90" cy="232" rx="44" ry="16" fill="#F3E6C8"/><ellipse cx="170" cy="328" rx="44" ry="16" fill="#8E6820"/><rect x="126" y="310" width="88" height="18" rx="0" fill="#D9AD55" /><ellipse cx="170" cy="310" rx="44" ry="16" fill="#F3E6C8"/><ellipse cx="170" cy="302" rx="44" ry="16" fill="#8E6820"/><rect x="126" y="284" width="88" height="18" rx="0" fill="#D9AD55" /><ellipse cx="170" cy="284" rx="44" ry="16" fill="#F3E6C8"/><ellipse cx="170" cy="276" rx="44" ry="16" fill="#8E6820"/><rect x="126" y="258" width="88" height="18" rx="0" fill="#D9AD55" /><ellipse cx="170" cy="258" rx="44" ry="16" fill="#F3E6C8"/><ellipse cx="170" cy="250" rx="44" ry="16" fill="#8E6820"/><rect x="126" y="232" width="88" height="18" rx="0" fill="#D9AD55" /><ellipse cx="170" cy="232" rx="44" ry="16" fill="#F3E6C8"/><ellipse cx="170" cy="224" rx="44" ry="16" fill="#8E6820"/><rect x="126" y="206" width="88" height="18" rx="0" fill="#D9AD55" /><ellipse cx="170" cy="206" rx="44" ry="16" fill="#F3E6C8"/><ellipse cx="170" cy="198" rx="44" ry="16" fill="#8E6820"/><rect x="126" y="180" width="88" height="18" rx="0" fill="#D9AD55" /><ellipse cx="170" cy="180" rx="44" ry="16" fill="#F3E6C8"/><ellipse cx="250" cy="328" rx="44" ry="16" fill="#8E6820"/><rect x="206" y="310" width="88" height="18" rx="0" fill="#B4842A" /><ellipse cx="250" cy="310" rx="44" ry="16" fill="#F3E6C8"/><ellipse cx="250" cy="302" rx="44" ry="16" fill="#8E6820"/><rect x="206" y="284" width="88" height="18" rx="0" fill="#B4842A" /><ellipse cx="250" cy="284" rx="44" ry="16" fill="#F3E6C8"/><ellipse cx="250" cy="276" rx="44" ry="16" fill="#8E6820"/><rect x="206" y="258" width="88" height="18" rx="0" fill="#B4842A" /><ellipse cx="250" cy="258" rx="44" ry="16" fill="#F3E6C8"/><circle cx="300" cy="130" r="62" fill="#0E4D3C" /><circle cx="300" cy="130" r="48" fill="none" stroke="#D9AD55" stroke-width="5"/><text x="300" y="152" text-anchor="middle" font-family="Segoe UI,Arial,sans-serif" font-size="66" font-weight="700" fill="#D9AD55">đ</text></g><rect x="128" y="792" width="220" height="14" rx="7" fill="#0E4D3C" /><rect x="364" y="792" width="90" height="14" rx="7" fill="#D9AD55" /></svg>